<svg xmlns="http://www.w3.org/2000/svg" viewBox="0 0 383.993 383.993" fill="#fff200">
  <path d="M382.309 360.848l-87.912-176-87.912-176A15.976 15.976 0 00192.181 0h-.008a16.008 16.008 0 00-14.304 8.832l-88.088 176-88.088 176a15.99 15.99 0 00.696 15.568 15.99 15.99 0 0013.608 7.592h352a15.983 15.983 0 0013.608-7.584 16.016 16.016 0 00.704-15.56zM192.157 51.768l62.048 124.224H129.981l62.176-124.224zM41.893 351.992l62.192-124.248 62.184 124.248H41.893zM192.141 332.2l-49.824-99.552-12.336-24.656h124.144L192.141 332.2zm25.896 19.792l62.008-124.264 62.08 124.264H218.037z"/>
</svg>